<?xml version="1.0" encoding="UTF-8"?>
<svg width="2285px" height="951px" viewBox="0 0 2285 951" version="1.1" xmlns="http://www.w3.org/2000/svg" xmlns:xlink="http://www.w3.org/1999/xlink">
    <!-- Generator: Sketch 47.1 (45422) - http://www.bohemiancoding.com/sketch -->
    <title>Site map</title>
    <desc>Created with Sketch.</desc>
    <defs>
        <rect id="path-1" x="0" y="0" width="177" height="120" rx="8"></rect>
        <rect id="path-2" x="601" y="160" width="240" height="120" rx="8"></rect>
        <rect id="path-3" x="0" y="160" width="240" height="120" rx="8"></rect>
        <rect id="path-4" x="250" y="160" width="240" height="120" rx="8"></rect>
        <rect id="path-5" x="501" y="320" width="240" height="120" rx="8"></rect>
        <rect id="path-6" x="250" y="320" width="240" height="120" rx="8"></rect>
        <rect id="path-7" x="39" y="226" width="119" height="60" rx="8"></rect>
    </defs>
    <g id="Page-1" stroke="none" stroke-width="1" fill="none" fill-rule="evenodd">
        <g id="Site-map">
            <g id="Start" transform="translate(490.000000, 287.000000)">
                <g id="Rectangle-13">
                    <use fill="#000000" fill-rule="evenodd" xlink:href="#path-1"></use>
                    <rect stroke="#000000" stroke-width="1" x="0.5" y="0.5" width="176" height="119" rx="8"></rect>
                </g>
                <text id="START" font-family="SFProDisplay-Bold, SF Pro Display" font-size="30" font-weight="bold" letter-spacing="-0.172499999" fill="#FFFFFF">
                    <tspan x="46" y="71">START</tspan>
                </text>
            </g>
            <rect id="Rectangle-14" fill-opacity="0.463117074" fill="#E11784" x="816" y="287" width="240" height="120" rx="8"></rect>
            <text id="Welcome-Slides" font-family="SFProDisplay-Bold, SF Pro Display" font-size="30" font-weight="bold" letter-spacing="-0.172499999" fill="#000000">
                <tspan x="829.448223" y="358">Welcome Slides</tspan>
            </text>
            <rect id="Rectangle-14" fill-opacity="0.463117074" fill="#E11784" x="1126" y="287" width="240" height="120" rx="8"></rect>
            <rect id="Rectangle-14" fill-opacity="0.463117074" fill="#E11784" x="1439" y="287" width="240" height="120" rx="8"></rect>
            <rect id="Rectangle-14" fill-opacity="0.463117074" fill="#E11784" x="1747" y="287" width="240" height="120" rx="8"></rect>
            <text id="Set-Profile" font-family="SFProDisplay-Bold, SF Pro Display" font-size="30" font-weight="bold" letter-spacing="-0.172499999" fill="#000000">
                <tspan x="1177.39992" y="358">Set Profile</tspan>
            </text>
            <text id="Agree-to-Community-S" font-family="SFProDisplay-Bold, SF Pro Display" font-size="30" font-weight="bold" letter-spacing="-0.172499999" fill="#000000">
                <tspan x="1502.09967" y="322">Agree to</tspan>
                <tspan x="1480.24256" y="358">Community</tspan>
                <tspan x="1489.18543" y="394">Standards</tspan>
            </text>
            <text id="Allow-to-Access-Loca" font-family="SFProDisplay-Bold, SF Pro Display" font-size="30" font-weight="bold" letter-spacing="-0.172499999" fill="#000000">
                <tspan x="1760.37871" y="340">Allow to Access</tspan>
                <tspan x="1808.51764" y="376">Location</tspan>
            </text>
            <text id="New-User" font-family="SFProDisplay-Bold, SF Pro Display" font-size="30" font-weight="bold" letter-spacing="-0.172499999" fill="#000000">
                <tspan x="676.242734" y="340">New User</tspan>
            </text>
            <path d="M666.496644,347.5 L815.5,347.5" id="Line" stroke="#000000" stroke-width="3" stroke-linecap="square"></path>
            <path id="Line-decoration-1" d="M815.5,347.5 L804.7,344.5 L804.7,350.5 L815.5,347.5 Z" stroke="#000000" stroke-width="3" stroke-linecap="square"></path>
            <path d="M1056.5,347.5 L1123.5,347.5" id="Line" stroke="#E11784" stroke-width="3" stroke-linecap="square"></path>
            <path id="Line-decoration-1" d="M1123.5,347.5 L1112.7,344.5 L1112.7,350.5 L1123.5,347.5 Z" stroke="#E11784" stroke-width="3" stroke-linecap="square"></path>
            <path d="M1368.5,347.5 L1435.5,347.5" id="Line" stroke="#E11784" stroke-width="3" stroke-linecap="square"></path>
            <path id="Line-decoration-1" d="M1435.5,347.5 L1424.7,344.5 L1424.7,350.5 L1435.5,347.5 Z" stroke="#E11784" stroke-width="3" stroke-linecap="square"></path>
            <path d="M1676.5,347.5 L1743.5,347.5" id="Line" stroke="#E11784" stroke-width="3" stroke-linecap="square"></path>
            <path id="Line-decoration-1" d="M1743.5,347.5 L1732.7,344.5 L1732.7,350.5 L1743.5,347.5 Z" stroke="#E11784" stroke-width="3" stroke-linecap="square"></path>
            <g id="Group-2" transform="translate(158.000000, 467.000000)">
                <g id="Rectangle-14">
                    <use fill="#FFFFFF" fill-rule="evenodd" xlink:href="#path-2"></use>
                    <rect stroke="#000000" stroke-width="3" x="602.5" y="161.5" width="237" height="117" rx="8"></rect>
                </g>
                <text id="Join-existing-challe" font-family="SFProDisplay-Bold, SF Pro Display" font-size="30" font-weight="bold" letter-spacing="-0.172499999" fill="#000000">
                    <tspan x="636.025059" y="209">Join existing</tspan>
                    <tspan x="655.16248" y="245">challenge</tspan>
                </text>
                <rect id="Rectangle-14" fill-opacity="0.566802536" fill="#942633" x="0" y="0" width="240" height="120" rx="8"></rect>
                <text id="Profile" font-family="SFProDisplay-Bold, SF Pro Display" font-size="30" font-weight="bold" letter-spacing="-0.172499999" fill="#000000">
                    <tspan x="76.6511133" y="71">Profile</tspan>
                </text>
                <rect id="Rectangle-14" fill-opacity="0.566802536" fill="#942633" x="300" y="0" width="240" height="120" rx="8"></rect>
                <rect id="Rectangle-14" fill-opacity="0.566802536" fill="#942633" x="601" y="1" width="240" height="120" rx="8"></rect>
                <text id="My-Activities" font-family="SFProDisplay-Bold, SF Pro Display" font-size="30" font-weight="bold" letter-spacing="-0.172499999" fill="#000000">
                    <tspan x="333.406406" y="71">My Activities</tspan>
                </text>
                <text id="Challenges" font-family="SFProDisplay-Bold, SF Pro Display" font-size="30" font-weight="bold" letter-spacing="-0.172499999" fill="#000000">
                    <tspan x="645.509473" y="72">Challenges</tspan>
                </text>
                <g id="Rectangle-14">
                    <use fill="#FFFFFF" fill-rule="evenodd" xlink:href="#path-3"></use>
                    <rect stroke="#000000" stroke-width="3" x="1.5" y="161.5" width="237" height="117" rx="8"></rect>
                </g>
                <text id="Set-Goals" font-family="SFProDisplay-Bold, SF Pro Display" font-size="30" font-weight="bold" letter-spacing="-0.172499999" fill="#000000">
                    <tspan x="55.6126758" y="231">Set Goals</tspan>
                </text>
                <g id="Rectangle-14">
                    <use fill="#FFFFFF" fill-rule="evenodd" xlink:href="#path-4"></use>
                    <rect stroke="#000000" stroke-width="3" x="251.5" y="161.5" width="237" height="117" rx="8"></rect>
                </g>
                <g id="Rectangle-14">
                    <use fill="#FFFFFF" fill-rule="evenodd" xlink:href="#path-5"></use>
                    <rect stroke="#000000" stroke-width="3" x="502.5" y="321.5" width="237" height="117" rx="8"></rect>
                </g>
                <text id="Track-Activity" font-family="SFProDisplay-Bold, SF Pro Display" font-size="30" font-weight="bold" letter-spacing="-0.172499999" fill="#000000">
                    <tspan x="277.329082" y="231">Track Activity</tspan>
                </text>
                <text id="View-all-joined-Chal" font-family="SFProDisplay-Bold, SF Pro Display" font-size="30" font-weight="bold" letter-spacing="-0.172499999" fill="#000000">
                    <tspan x="525.394336" y="369">View all joined</tspan>
                    <tspan x="545.009473" y="405">Challenges</tspan>
                </text>
                <g id="Rectangle-14-Copy">
                    <use fill="#FFFFFF" fill-rule="evenodd" xlink:href="#path-6"></use>
                    <rect stroke="#000000" stroke-width="3" x="251.5" y="321.5" width="237" height="117" rx="8"></rect>
                </g>
                <text id="View-Progress" font-family="SFProDisplay-Bold, SF Pro Display" font-size="30" font-weight="bold" letter-spacing="-0.172499999" fill="#000000">
                    <tspan x="272.416172" y="391">View Progress</tspan>
                </text>
                <path d="M240.5,70.5 L300.5,70.5" id="Line" stroke="#942633" stroke-width="3" stroke-linecap="square"></path>
                <path id="Line-decoration-1" d="M300.5,70.5 L289.7,67.5 L289.7,73.5 L300.5,70.5 Z" stroke="#942633" stroke-width="3" stroke-linecap="square"></path>
                <path d="M240.5,50.5 L300.5,50.5" id="Line" stroke="#942633" stroke-width="3" stroke-linecap="square" transform="translate(270.500000, 50.500000) scale(-1, 1) translate(-270.500000, -50.500000) "></path>
                <path id="Line-decoration-1" d="M300.5,50.5 L289.7,47.5 L289.7,53.5 L300.5,50.5 Z" stroke="#942633" stroke-width="3" stroke-linecap="square"></path>
                <path d="M540.5,69.5 L600.5,69.5" id="Line" stroke="#942633" stroke-width="3" stroke-linecap="square"></path>
                <path id="Line-decoration-1" d="M600.5,69.5 L589.7,66.5 L589.7,72.5 L600.5,69.5 Z" stroke="#942633" stroke-width="3" stroke-linecap="square"></path>
                <path d="M540.5,49.5 L600.5,49.5" id="Line" stroke="#942633" stroke-width="3" stroke-linecap="square" transform="translate(570.500000, 49.500000) scale(-1, 1) translate(-570.500000, -49.500000) "></path>
                <path id="Line-decoration-1" d="M600.5,49.5 L589.7,46.5 L589.7,52.5 L600.5,49.5 Z" stroke="#942633" stroke-width="3" stroke-linecap="square"></path>
                <path d="M111.5,121.5 L111.5,159.5" id="Line-2" stroke="#000000" stroke-width="3" stroke-linecap="square"></path>
                <path id="Line-2-decoration-1" d="M111.5,159.5 L114.5,148.7 L108.5,148.7 L111.5,159.5 Z" stroke="#000000" stroke-width="3" stroke-linecap="square"></path>
                <path d="M422.5,120.5 L422.5,158.5" id="Line-2" stroke="#000000" stroke-width="3" stroke-linecap="square"></path>
                <path id="Line-2-decoration-1" d="M422.5,158.5 L425.5,147.7 L419.5,147.7 L422.5,158.5 Z" stroke="#000000" stroke-width="3" stroke-linecap="square"></path>
                <path d="M424.5,120.5 C464.506441,132.571939 493.965541,154.461522 512.877298,186.16875 C533.629426,220.961522 543.834212,265.571939 543.491656,320" id="Line-3" stroke="#000000" stroke-width="3" stroke-linecap="square"></path>
                <path id="Line-3-decoration-1" d="M543.491656,320 L546.559567,309.219095 L540.559686,309.181333 L543.491656,320 Z" stroke="#000000" stroke-width="3" stroke-linecap="square"></path>
                <path d="M371.5,280.5 L371.5,318.5" id="Line-2" stroke="#000000" stroke-width="3" stroke-linecap="square"></path>
                <path id="Line-2-decoration-1" d="M371.5,318.5 L374.5,307.7 L368.5,307.7 L371.5,318.5 Z" stroke="#000000" stroke-width="3" stroke-linecap="square"></path>
                <path d="M721.5,280.5 L721.5,318.5" id="Line-4" stroke="#000000" stroke-width="3" stroke-linecap="square"></path>
                <path id="Line-4-decoration-1" d="M721.5,318.5 L724.5,307.7 L718.5,307.7 L721.5,318.5 Z" stroke="#000000" stroke-width="3" stroke-linecap="square"></path>
            </g>
            <path d="M578.5,464.5 L578.5,407.5" id="Line-7" stroke="#000000" stroke-width="3" stroke-linecap="square" transform="translate(578.500000, 436.000000) scale(1, -1) translate(-578.500000, -436.000000) "></path>
            <path id="Line-7-decoration-1" d="M578.5,407.5 L575.5,418.3 L581.5,418.3 L578.5,407.5 Z" stroke="#000000" stroke-width="3" stroke-linecap="square"></path>
            <rect id="Rectangle-14" fill-opacity="0.463117074" fill="#E11784" x="39" y="16" width="119" height="60" rx="8"></rect>
            <text id="Creating-an-account" font-family="SFProDisplay-Regular, SF Pro Display" font-size="25" font-weight="normal" letter-spacing="-0.143749997" fill="#000000">
                <tspan x="169" y="40">Creating an account</tspan>
                <tspan x="169" y="70">(User activation)</tspan>
            </text>
            <rect id="Rectangle-14" fill-opacity="0.605015851" fill="#F86969" x="39" y="86" width="119" height="60" rx="8"></rect>
            <text id="Creating-a-challenge" font-family="SFProDisplay-Regular, SF Pro Display" font-size="25" font-weight="normal" letter-spacing="-0.143749997" fill="#000000">
                <tspan x="169" y="110">Creating a challenge</tspan>
                <tspan x="169" y="140">(User engagement &amp; retention)</tspan>
            </text>
            <rect id="Rectangle-14" fill-opacity="0.566802536" fill="#942633" x="39" y="156" width="119" height="60" rx="8"></rect>
            <g id="Rectangle-14">
                <use fill="#FFFFFF" fill-rule="evenodd" xlink:href="#path-7"></use>
                <rect stroke="#000000" stroke-width="3" x="40.5" y="227.5" width="116" height="57" rx="8"></rect>
            </g>
            <text id="Main-navigation" font-family="SFProDisplay-Regular, SF Pro Display" font-size="25" font-weight="normal" letter-spacing="-0.143749997" fill="#000000">
                <tspan x="169" y="195">Main navigation</tspan>
            </text>
            <text id="Personal-activity-&amp;" font-family="SFProDisplay-Regular, SF Pro Display" font-size="25" font-weight="normal" letter-spacing="-0.143749997" fill="#000000">
                <tspan x="169" y="250">Personal activity &amp; progress</tspan>
                <tspan x="169" y="280">(User retention)</tspan>
            </text>
            <path d="M879.5,588.5 L879.5,626.5" id="Line-4" stroke="#000000" stroke-width="3" stroke-linecap="square"></path>
            <path id="Line-4-decoration-1" d="M879.5,626.5 L882.5,615.7 L876.5,615.7 L879.5,626.5 Z" stroke="#000000" stroke-width="3" stroke-linecap="square"></path>
            <path d="M1868,470 C1674.53528,467.9563 1478.70195,461.789633 1280.5,451.5 C1087.03528,441.4563 891.201945,427.289633 693,409" id="Line-7" stroke="#000000" stroke-width="3" stroke-linecap="square" transform="translate(1280.500000, 439.500000) scale(1, -1) translate(-1280.500000, -439.500000) "></path>
            <path id="Line-7-decoration-1" d="M693,409 L703.478647,412.979692 L704.029972,407.005075 L693,409 Z" stroke="#000000" stroke-width="3" stroke-linecap="square"></path>
            <g id="Group-4" transform="translate(1097.000000, 468.000000)">
                <rect id="Rectangle-14" fill-opacity="0.605015851" fill="#F86969" x="0" y="0" width="240" height="120" rx="8"></rect>
                <text id="Create-new-Challenge" font-family="SFProDisplay-Bold, SF Pro Display" font-size="30" font-weight="bold" letter-spacing="-0.172499999" fill="#000000">
                    <tspan x="43.1378906" y="53">Create new</tspan>
                    <tspan x="51.6502734" y="89">Challenge</tspan>
                </text>
                <rect id="Rectangle-14" fill-opacity="0.605015851" fill="#F86969" x="300" y="0" width="240" height="120" rx="8"></rect>
                <rect id="Rectangle-14" fill-opacity="0.605015851" fill="#F86969" x="601" y="0" width="240" height="120" rx="8"></rect>
                <rect id="Rectangle-14" fill-opacity="0.605015851" fill="#F86969" x="900" y="0" width="240" height="120" rx="8"></rect>
                <text id="Select-Activity-Type" font-family="SFProDisplay-Regular, SF Pro Display" font-size="30" font-weight="normal" letter-spacing="-0.172499999" fill="#000000">
                    <tspan x="333.326465" y="53">Select Activity</tspan>
                    <tspan x="391.176543" y="89">Type</tspan>
                </text>
                <text id="Select-Challenge-Typ" font-family="SFProDisplay-Regular, SF Pro Display" font-size="30" font-weight="normal" letter-spacing="-0.172499999" fill="#000000">
                    <tspan x="616.898555" y="35">Select Challenge</tspan>
                    <tspan x="691.676543" y="71">Type</tspan>
                    <tspan x="751.323457" y="71" font-family="SFProDisplay-Bold, SF Pro Display" font-weight="bold"></tspan>
                    <tspan x="616.297969" y="107">(meet-up/online)</tspan>
                </text>
                <text id="Challenge-Name" font-family="SFProDisplay-Regular, SF Pro Display" font-size="30" font-weight="normal" letter-spacing="-0.172499999" fill="#000000">
                    <tspan x="917.064434" y="71">Challenge Name</tspan>
                </text>
                <path d="M240.5,60.5 L300.5,60.5" id="Line" stroke="#F86969" stroke-width="3" stroke-linecap="square"></path>
                <path id="Line-decoration-1" d="M300.5,60.5 L289.7,57.5 L289.7,63.5 L300.5,60.5 Z" stroke="#F86969" stroke-width="3" stroke-linecap="square"></path>
                <path d="M540.5,60.5 L600.5,60.5" id="Line" stroke="#F86969" stroke-width="3" stroke-linecap="square"></path>
                <path id="Line-decoration-1" d="M600.5,60.5 L589.7,57.5 L589.7,63.5 L600.5,60.5 Z" stroke="#F86969" stroke-width="3" stroke-linecap="square"></path>
                <path d="M840.5,60.5 L900.5,60.5" id="Line" stroke="#F86969" stroke-width="3" stroke-linecap="square"></path>
                <path id="Line-decoration-1" d="M900.5,60.5 L889.7,57.5 L889.7,63.5 L900.5,60.5 Z" stroke="#F86969" stroke-width="3" stroke-linecap="square"></path>
                <path d="M1025.5,118.5 L540.5,161.5" id="Line" stroke="#F86969" stroke-width="3" stroke-linecap="square"></path>
                <path id="Line-decoration-1" d="M540.5,161.5 L551.522742,163.534494 L550.992861,157.557937 L540.5,161.5 Z" stroke="#F86969" stroke-width="3" stroke-linecap="square"></path>
                <g id="Group" transform="translate(302.000000, 160.000000)">
                    <rect id="Rectangle-14" fill-opacity="0.605015851" fill="#F86969" x="0" y="0" width="240" height="120" rx="8"></rect>
                    <text id="Date-&amp;-Frequency" font-family="SFProDisplay-Regular, SF Pro Display" font-size="30" font-weight="normal" letter-spacing="-0.172499999" fill="#000000">
                        <tspan x="78.2220898" y="53">Date &amp; </tspan>
                        <tspan x="54.8895312" y="89">Frequency</tspan>
                    </text>
                    <rect id="Rectangle-14" fill-opacity="0.605015851" fill="#F86969" x="300" y="0" width="240" height="120" rx="8"></rect>
                    <rect id="Rectangle-14" fill-opacity="0.61" fill="#F86969" x="600" y="0" width="240" height="120" rx="8"></rect>
                    <text id="Description" font-family="SFProDisplay-Regular, SF Pro Display" font-size="30" font-weight="normal" letter-spacing="-0.172499999" fill="#000000">
                        <tspan x="349.23" y="71">Description</tspan>
                    </text>
                    <text id="Challenge-created" font-family="SFProDisplay-Regular, SF Pro Display" font-size="30" font-weight="normal" letter-spacing="-0.172499999" fill="#000000">
                        <tspan x="657.738652" y="53">Challenge</tspan>
                        <tspan x="673.833242" y="89">created</tspan>
                    </text>
                    <path d="M239.5,60.5 L299.5,60.5" id="Line" stroke="#F86969" stroke-width="3" stroke-linecap="square"></path>
                    <path id="Line-decoration-1" d="M299.5,60.5 L288.7,57.5 L288.7,63.5 L299.5,60.5 Z" stroke="#F86969" stroke-width="3" stroke-linecap="square"></path>
                    <path d="M539.5,60.5 L599.5,60.5" id="Line" stroke="#F86969" stroke-width="3" stroke-linecap="square"></path>
                    <path id="Line-decoration-1" d="M599.5,60.5 L588.7,57.5 L588.7,63.5 L599.5,60.5 Z" stroke="#F86969" stroke-width="3" stroke-linecap="square"></path>
                </g>
            </g>
            <path d="M999.5,528.5 L1093.5,528.5" id="Line-4" stroke="#000000" stroke-width="3" stroke-linecap="square"></path>
            <path id="Line-4-decoration-1" d="M1093.5,528.5 L1082.7,525.5 L1082.7,531.5 L1093.5,528.5 Z" stroke="#000000" stroke-width="3" stroke-linecap="square"></path>
            <path d="M2101.5,747.5 L899.5,861.5" id="Line-5" stroke="#000000" stroke-width="3" stroke-linecap="square"></path>
            <path id="Line-5-decoration-1" d="M899.5,861.5 L910.535007,863.466881 L909.968498,857.493685 L899.5,861.5 Z" stroke="#000000" stroke-width="3" stroke-linecap="square"></path>
        </g>
    </g>
</svg>