<?xml version="1.0" encoding="UTF-8"?>
<svg width="451px" height="282px" viewBox="0 0 451 282" version="1.1" xmlns="http://www.w3.org/2000/svg" xmlns:xlink="http://www.w3.org/1999/xlink">
    <!-- Generator: Sketch 47.1 (45422) - http://www.bohemiancoding.com/sketch -->
    <title>Big fit girl</title>
    <desc>Created with Sketch.</desc>
    <defs>
        <rect id="path-1" x="0" y="0" width="431" height="262" rx="8"></rect>
        <polygon id="path-3" points="50.7054775 109 52 130.838564 40 137"></polygon>
        <filter x="-100.0%" y="-42.9%" width="300.0%" height="185.7%" filterUnits="objectBoundingBox" id="filter-4">
            <feMorphology radius="1" operator="dilate" in="SourceAlpha" result="shadowSpreadOuter1"></feMorphology>
            <feOffset dx="0" dy="0" in="shadowSpreadOuter1" result="shadowOffsetOuter1"></feOffset>
            <feGaussianBlur stdDeviation="3" in="shadowOffsetOuter1" result="shadowBlurOuter1"></feGaussianBlur>
            <feColorMatrix values="0 0 0 0 0.968627451   0 0 0 0 0.37254902   0 0 0 0 0.721568627  0 0 0 1 0" type="matrix" in="shadowBlurOuter1"></feColorMatrix>
        </filter>
        <polygon id="path-5" points="63 81 60.649063 100.452035 50 101"></polygon>
        <filter x="-92.3%" y="-60.0%" width="284.6%" height="220.0%" filterUnits="objectBoundingBox" id="filter-6">
            <feMorphology radius="1" operator="dilate" in="SourceAlpha" result="shadowSpreadOuter1"></feMorphology>
            <feOffset dx="0" dy="0" in="shadowSpreadOuter1" result="shadowOffsetOuter1"></feOffset>
            <feGaussianBlur stdDeviation="3" in="shadowOffsetOuter1" result="shadowBlurOuter1"></feGaussianBlur>
            <feColorMatrix values="0 0 0 0 0.97254902   0 0 0 0 0.411764706   0 0 0 0 0.411764706  0 0 0 1 0" type="matrix" in="shadowBlurOuter1"></feColorMatrix>
        </filter>
        <polygon id="path-7" points="224 32 223.718777 60.6603614 218 66"></polygon>
        <filter x="-150.0%" y="-26.5%" width="400.0%" height="152.9%" filterUnits="objectBoundingBox" id="filter-8">
            <feOffset dx="0" dy="0" in="SourceAlpha" result="shadowOffsetOuter1"></feOffset>
            <feGaussianBlur stdDeviation="3" in="shadowOffsetOuter1" result="shadowBlurOuter1"></feGaussianBlur>
            <feColorMatrix values="0 0 0 0 0.858823529   0 0 0 0 0.250980392   0 0 0 0 0.239215686  0 0 0 1 0" type="matrix" in="shadowBlurOuter1"></feColorMatrix>
        </filter>
        <polygon id="path-9" points="189 100 182.252085 117 178 113.816437"></polygon>
        <filter x="-54.5%" y="-35.3%" width="209.1%" height="170.6%" filterUnits="objectBoundingBox" id="filter-10">
            <feOffset dx="0" dy="0" in="SourceAlpha" result="shadowOffsetOuter1"></feOffset>
            <feGaussianBlur stdDeviation="2" in="shadowOffsetOuter1" result="shadowBlurOuter1"></feGaussianBlur>
            <feColorMatrix values="0 0 0 0 0.88627451   0 0 0 0 0.0901960784   0 0 0 0 0.51372549  0 0 0 1 0" type="matrix" in="shadowBlurOuter1"></feColorMatrix>
        </filter>
        <filter x="-54.5%" y="-35.3%" width="209.1%" height="170.6%" filterUnits="objectBoundingBox" id="filter-11">
            <feGaussianBlur stdDeviation="2" in="SourceAlpha" result="shadowBlurInner1"></feGaussianBlur>
            <feOffset dx="0" dy="0" in="shadowBlurInner1" result="shadowOffsetInner1"></feOffset>
            <feComposite in="shadowOffsetInner1" in2="SourceAlpha" operator="arithmetic" k2="-1" k3="1" result="shadowInnerInner1"></feComposite>
            <feColorMatrix values="0 0 0 0 0.88627451   0 0 0 0 0.0901960784   0 0 0 0 0.51372549  0 0 0 1 0" type="matrix" in="shadowInnerInner1"></feColorMatrix>
        </filter>
        <polygon id="path-12" points="232 75 244 89 236.962023 87.7812391"></polygon>
        <filter x="-100.0%" y="-85.7%" width="300.0%" height="271.4%" filterUnits="objectBoundingBox" id="filter-13">
            <feMorphology radius="1" operator="dilate" in="SourceAlpha" result="shadowSpreadOuter1"></feMorphology>
            <feOffset dx="0" dy="0" in="shadowSpreadOuter1" result="shadowOffsetOuter1"></feOffset>
            <feGaussianBlur stdDeviation="3" in="shadowOffsetOuter1" result="shadowBlurOuter1"></feGaussianBlur>
            <feColorMatrix values="0 0 0 0 0.97254902   0 0 0 0 0.411764706   0 0 0 0 0.411764706  0 0 0 1 0" type="matrix" in="shadowBlurOuter1"></feColorMatrix>
        </filter>
    </defs>
    <g id="Page-1" stroke="none" stroke-width="1" fill="none" fill-rule="evenodd">
        <g id="Big-Fit-Girl-Summary" transform="translate(-342.000000, -277.000000)">
            <g id="Big-fit-girl" transform="translate(342.000000, 277.000000)">
                <rect id="Rectangle-18" fill-opacity="0.75" fill="#D3DAE0" x="0" y="0" width="451" height="282" rx="8"></rect>
                <g id="background" transform="translate(10.000000, 10.000000)">
                    <mask id="mask-2" fill="white">
                        <use xlink:href="#path-1"></use>
                    </mask>
                    <use id="Mask" fill="#000000" xlink:href="#path-1"></use>
                    <g mask="url(#mask-2)">
                        <g transform="translate(119.500000, 238.000000) scale(-1, 1) rotate(180.000000) translate(-119.500000, -238.000000) translate(-25.000000, 169.000000)">
                            <polygon id="Triangle" fill="#F75FB8" fill-rule="evenodd" transform="translate(178.000000, 65.500000) rotate(170.000000) translate(-178.000000, -65.500000) " points="155 26 201 105 177.21512 105"></polygon>
                            <polygon id="Triangle" fill-opacity="0.8" fill="#E21783" fill-rule="evenodd" transform="translate(183.000000, 52.000000) rotate(169.000000) translate(-183.000000, -52.000000) " points="171 8 195 89.5037345 171.540044 96"></polygon>
                            <polygon id="Triangle" fill="#D8D8D8" fill-rule="evenodd" transform="translate(26.000000, 80.500000) rotate(180.000000) translate(-26.000000, -80.500000) " points="26 47 52 114 0 114"></polygon>
                            <polygon id="Triangle" fill-opacity="0.8" fill="#E21783" fill-rule="evenodd" transform="translate(41.000000, 76.000000) rotate(180.000000) translate(-41.000000, -76.000000) " points="56 37 56 115 26 103.006666"></polygon>
                            <polygon id="Triangle" fill-opacity="0.3" fill="#E21783" fill-rule="evenodd" transform="translate(154.000000, 60.500000) rotate(160.000000) translate(-154.000000, -60.500000) " points="154 27 180 94 128 94"></polygon>
                            <polygon id="Triangle" fill-opacity="0.7" fill="#E21783" fill-rule="evenodd" transform="translate(138.000000, 57.000000) rotate(160.000000) translate(-138.000000, -57.000000) " points="125 14 151 81.9644738 135.287185 100"></polygon>
                            <polygon id="Triangle-2" fill="#F86969" fill-rule="evenodd" points="138 19 162 46 114 46"></polygon>
                            <polygon id="Triangle" fill="#F86969" fill-rule="evenodd" transform="translate(64.000000, 64.000000) rotate(140.000000) translate(-64.000000, -64.000000) " points="72.2790806 39 74 89 54 72.3051139"></polygon>
                            <polygon id="Triangle" fill-opacity="0.5" fill="#E21783" fill-rule="evenodd" transform="translate(48.500000, 74.000000) rotate(140.000000) translate(-48.500000, -74.000000) " points="37.9580187 48 62 92.9646776 35 100"></polygon>
                            <polygon id="Triangle" fill-opacity="0.8" fill="#DB403D" fill-rule="evenodd" transform="translate(101.000000, 61.000000) rotate(60.000000) translate(-101.000000, -61.000000) " points="125 27 109.966653 82.6961101 77 95"></polygon>
                            <polygon id="Triangle" fill-opacity="0.4" fill="#E21783" fill-rule="evenodd" transform="translate(119.000000, 78.000000) rotate(60.000000) translate(-119.000000, -78.000000) " points="120.098424 50 133 106 105 105.944285"></polygon>
                            <polygon id="Triangle" fill="#F75FB8" fill-rule="evenodd" opacity="0.7" transform="translate(68.500000, 45.000000) rotate(220.000000) translate(-68.500000, -45.000000) " points="89.2825255 11 95 64.036512 42 79"></polygon>
                            <polygon id="Triangle" fill-opacity="0.6" fill="#E21783" fill-rule="evenodd" transform="translate(67.000000, 45.000000) rotate(220.000000) translate(-67.000000, -45.000000) " points="86.9686287 11 95 39.8246777 39 79"></polygon>
                            <polygon id="Triangle" fill="#E21783" fill-rule="evenodd" transform="translate(76.000000, 58.000000) rotate(220.000000) translate(-76.000000, -58.000000) " points="102 39 80.0172418 77 50 65.4194596"></polygon>
                            <polygon id="Triangle" fill="#F75FB8" fill-rule="evenodd" transform="translate(85.500000, 77.000000) rotate(220.000000) translate(-85.500000, -77.000000) " points="109 69 100.664415 85 62 70.8447959"></polygon>
                            <polygon id="Triangle" fill-opacity="0.7" fill="#F75FB8" fill-rule="evenodd" transform="translate(104.000000, 47.500000) rotate(220.000000) translate(-104.000000, -47.500000) " points="104 34 128 61 80 61"></polygon>
                            <polygon id="Triangle" fill-opacity="0.2" fill="#E21783" fill-rule="evenodd" transform="translate(108.000000, 44.500000) rotate(220.000000) translate(-108.000000, -44.500000) " points="83 36 133 53 84.7790084 53"></polygon>
                            <polygon id="Triangle" fill="#E21783" fill-rule="evenodd" points="171 59.0850278 148.849393 83 88 49"></polygon>
                            <polygon id="Triangle" fill-opacity="0.4" fill="#E21783" fill-rule="evenodd" points="171 59.0850278 148.849393 83 88 49"></polygon>
                            <polygon id="Triangle" fill="#F75FB8" fill-rule="evenodd" transform="translate(263.000000, 36.500000) rotate(220.000000) translate(-263.000000, -36.500000) " points="285 23 276.742759 50 241 35.659768"></polygon>
                            <g id="Triangle" fill="none" transform="translate(46.000000, 123.000000) rotate(190.000000) translate(-46.000000, -123.000000) ">
                                <use fill="black" fill-opacity="1" filter="url(#filter-4)" xlink:href="#path-3"></use>
                                <use fill="#F75FB8" fill-rule="evenodd" xlink:href="#path-3"></use>
                            </g>
                            <g id="Triangle" fill="none" transform="translate(56.500000, 91.000000) rotate(80.000000) translate(-56.500000, -91.000000) ">
                                <use fill="black" fill-opacity="1" filter="url(#filter-6)" xlink:href="#path-5"></use>
                                <use fill="#F86969" fill-rule="evenodd" xlink:href="#path-5"></use>
                            </g>
                            <g id="Triangle" fill="none" transform="translate(221.000000, 49.000000) rotate(60.000000) translate(-221.000000, -49.000000) ">
                                <use fill="black" fill-opacity="1" filter="url(#filter-8)" xlink:href="#path-7"></use>
                                <use fill="#DB403D" fill-rule="evenodd" xlink:href="#path-7"></use>
                            </g>
                            <polygon id="Triangle" fill="#E21783" fill-rule="evenodd" transform="translate(137.500000, 89.500000) rotate(80.000000) translate(-137.500000, -89.500000) " points="143 81 136.252085 98 132 94.8164371"></polygon>
                            <g id="Triangle" fill="none" transform="translate(183.500000, 108.500000) rotate(80.000000) translate(-183.500000, -108.500000) ">
                                <use fill="black" fill-opacity="1" filter="url(#filter-10)" xlink:href="#path-9"></use>
                                <use fill="#E21783" fill-rule="evenodd" xlink:href="#path-9"></use>
                                <use fill="black" fill-opacity="1" filter="url(#filter-11)" xlink:href="#path-9"></use>
                            </g>
                            <g id="Triangle" fill="none" transform="translate(238.000000, 82.000000) rotate(110.000000) translate(-238.000000, -82.000000) ">
                                <use fill="black" fill-opacity="1" filter="url(#filter-13)" xlink:href="#path-12"></use>
                                <use fill="#F86969" fill-rule="evenodd" xlink:href="#path-12"></use>
                            </g>
                            <polygon id="Triangle" fill-opacity="0.7" fill="#F86969" fill-rule="evenodd" transform="translate(79.500000, 97.000000) rotate(80.000000) translate(-79.500000, -97.000000) " points="80.1365812 87.9237437 84 107 75 87"></polygon>
                            <polygon id="Triangle" fill-opacity="0.7" fill="#F86969" fill-rule="evenodd" transform="translate(79.500000, 97.000000) rotate(80.000000) translate(-79.500000, -97.000000) " points="80.1365812 87.9237437 84 107 75 87"></polygon>
                            <polygon id="Triangle" fill-opacity="0.6" fill="#E21783" fill-rule="evenodd" transform="translate(207.500000, 47.000000) rotate(169.000000) translate(-207.500000, -47.000000) " points="219.440621 6 220 78.5910238 195 88"></polygon>
                            <polygon id="Triangle" fill-opacity="0.5" fill="#E21783" fill-rule="evenodd" opacity="0.8" transform="translate(13.000000, 80.500000) rotate(180.000000) translate(-13.000000, -80.500000) " points="1.33297666e-12 47 26 114 9.23705556e-13 114"></polygon>
                        </g>
                    </g>
                </g>
                <g id="Group-3" transform="translate(78.000000, 33.000000)" fill="#FFFFFF">
                    <text id="Design-a-weight-neut" font-family="SFProDisplay-Regular, SF Pro Display" font-size="20" font-weight="normal">
                        <tspan x="0" y="135">Design a weight neutral fitness app  </tspan>
                        <tspan x="0" y="159">applied as an extension to other Big </tspan>
                        <tspan x="0" y="183">Fit Girl (BFG) services and products</tspan>
                    </text>
                    <text id="UX-design" font-family="SFProDisplay-Regular, SF Pro Display" font-size="20" font-weight="normal">
                        <tspan x="0" y="54">UX design</tspan>
                    </text>
                    <text id="Role" font-family="SFProDisplay-Bold, SF Pro Display" font-size="25" font-weight="bold">
                        <tspan x="0" y="24">Role</tspan>
                    </text>
                    <text id="Project" font-family="SFProDisplay-Bold, SF Pro Display" font-size="25" font-weight="bold">
                        <tspan x="0" y="105">Project</tspan>
                    </text>
                </g>
            </g>
        </g>
    </g>
</svg>