<?xml version="1.0" encoding="UTF-8"?>
<svg width="191px" height="192px" viewBox="0 0 191 192" version="1.1" xmlns="http://www.w3.org/2000/svg" xmlns:xlink="http://www.w3.org/1999/xlink">
    <!-- Generator: Sketch 46.2 (44496) - http://www.bohemiancoding.com/sketch -->
    <title>Group 2</title>
    <desc>Created with Sketch.</desc>
    <defs></defs>
    <g id="Page-1" stroke="none" stroke-width="1" fill="none" fill-rule="evenodd">
        <g id="Portfolio-(landing-page)-playing-with-it" transform="translate(-14.000000, -4.000000)">
            <g id="Group-2" transform="translate(-10.000000, -29.000000)">
                <g id="Group">
                    <g id="ENTIRE-BULB">
                        <g id="Light-bulb" transform="translate(121.244211, 119.656927) rotate(-25.000000) translate(-121.244211, -119.656927) translate(28.744211, 31.656927)" stroke-width="5">
                            <g id="Lightbulb-lights" transform="translate(0.000000, 0.000000)" stroke="#4A90E2">
                                <path d="M133.235521,141.584645 L159.814589,159.232152" id="Path-8"></path>
                                <path d="M156.008814,91.7787148 L184.394698,95.7044701" id="Path-10"></path>
                                <path d="M116.602814,153.851794 L128.270413,175.963427" id="Path-12"></path>
                                <path d="M117.135655,38.0319816 L127.866746,9.97152543" id="Path-14"></path>
                                <path d="M63.373631,28.3647256 L56.648534,0.135401765" id="Path-16"></path>
                                <path d="M31.1286882,60.5649475 L3.31278293,49.5584539" id="Path-18"></path>
                                <path d="M32.7385134,108.585228 L4.42528997,118.959722" id="Path-20"></path>
                                <path d="M147.181418,120.648398 L174.38052,131.751865" id="Path-9"></path>
                                <path d="M154.022771,69.5349974 L182.566892,60.3091381" id="Path-11"></path>
                                <path d="M139.038642,50.2807394 L160.584787,27.8213395" id="Path-13"></path>
                                <path d="M91.034528,29.7792013 L96.3015788,1.61006793" id="Path-15"></path>
                                <path d="M42.276364,40.5365733 L24.048364,14.5710794" id="Path-17"></path>
                                <path d="M30.4020871,84.6020048 L0.0446925872,84.6020048" id="Path-19"></path>
                                <path d="M38.8516507,127.553581 L19.2834754,141.405746" id="Path-21"></path>
                            </g>
                            <g id="Light-bulb-top" transform="translate(45.090600, 40.330237)" stroke="#000000">
                                <path d="M12.9051389,87.9306517 C-0.639062394,56.9794489 -3.44454885,33.1440273 4.48867959,16.4243869 C11.7719531,1.07455627 28.7783779,-3.51609191 55.5079543,2.65244236 C83.6408269,13.7507332 97.8308188,28.1600747 98.0779298,45.880467 C98.3651599,66.4778051 84.175168,84.6695071 55.5079543,100.455573" id="Path-7"></path>
                                <path d="M3.38647667,109.297745 C3.38647667,109.297745 6.42889716,102.231729 12.5137381,88.0996976" id="Line" stroke-linecap="square"></path>
                                <path d="M49.2788051,120.716898 L55.6157186,100.769797" id="Line-4" stroke-linecap="square"></path>
                            </g>
                        </g>
                        <g id="END-OF-BULB" transform="translate(105.538777, 186.250660)">
                            <path d="M1.64785144,16.2913415 C10.8823023,16.8643059 19.6285025,16.3867894 27.886452,14.858792 C35.7598766,13.4019447 43.4163366,11.065568 50.8558318,7.8496621" id="Path-2" stroke="#4A4A4A" stroke-width="6"></path>
                            <path d="M0.311022381,8.81679848 C9.92579665,8.54213928 18.8621586,7.64081101 27.1201081,6.11281366 C34.9935327,4.65596631 42.6166002,2.62472584 49.9893106,0.0190922625" id="Path-2" stroke="#000000" stroke-width="5"></path>
                            <path d="M2.92310182,25.4968631 C12.3165806,25.8746892 21.1422948,25.2996035 29.4002443,23.7716062 C37.2736689,22.3147588 45.1380226,20.04485 52.9933054,16.9618798" id="Path-2" stroke="#4A4A4A" stroke-width="6"></path>
                            <path d="M3.45105315,34.8247621 C14.0500701,35.0930487 23.4785533,34.4631933 31.7365028,32.9351959 C39.6099274,31.4783486 47.4584986,29.0976927 55.2822163,25.7932283" id="Path-2" stroke="#4A4A4A" stroke-width="6"></path>
                        </g>
                    </g>
                </g>
            </g>
        </g>
    </g>
</svg>