<?xml version="1.0" encoding="UTF-8"?>
<svg width="303px" height="305px" viewBox="0 0 303 305" version="1.1" xmlns="http://www.w3.org/2000/svg" xmlns:xlink="http://www.w3.org/1999/xlink">
    <!-- Generator: Sketch 46.2 (44496) - http://www.bohemiancoding.com/sketch -->
    <title>ENTIRE BULB</title>
    <desc>Created with Sketch.</desc>
    <defs></defs>
    <g id="Page-1" stroke="none" stroke-width="1" fill="none" fill-rule="evenodd">
        <g id="Portfolio-(landing-page)-option-2" transform="translate(-15.000000, -11.000000)">
            <g id="ENTIRE-BULB" transform="translate(-23.000000, -42.000000)">
                <g id="Light-bulb" transform="translate(192.605110, 189.461129) rotate(-25.000000) translate(-192.605110, -189.461129) translate(45.605110, 48.961129)" stroke-width="5">
                    <g id="Lightbulb-lights" stroke="#4A90E2">
                        <path d="M212.088563,226.241263 L254.397975,254.343806" id="Path-8"></path>
                        <path d="M248.33982,146.928458 L293.525378,153.179976" id="Path-10"></path>
                        <path d="M185.612089,245.775925 L204.184946,280.987307" id="Path-12"></path>
                        <path d="M186.460282,61.340173 L203.542376,16.6556651" id="Path-14"></path>
                        <path d="M100.880173,45.9456771 L90.1749483,0.992258122" id="Path-16"></path>
                        <path d="M49.5516415,97.2225012 L5.27339382,79.6953537" id="Path-18"></path>
                        <path d="M52.1142127,173.691771 L7.04431811,190.212498" id="Path-20"></path>
                        <path d="M234.288089,192.90161 L277.584489,210.583181" id="Path-9"></path>
                        <path d="M245.178373,111.50674 L290.615818,96.8151408" id="Path-11"></path>
                        <path d="M221.326157,80.8455478 L255.623999,45.0803691" id="Path-13"></path>
                        <path d="M144.911673,48.1981406 L153.295933,3.34057106" id="Path-15"></path>
                        <path d="M67.2968683,65.3285776 L38.280955,23.980165" id="Path-17"></path>
                        <path d="M48.3950146,135.5 L0.0711430898,135.5" id="Path-19"></path>
                        <path d="M61.8453002,203.897678 L30.6960529,225.956377" id="Path-21"></path>
                    </g>
                    <g id="Light-bulb-top" transform="translate(71.000000, 65.000000)" stroke="#000000">
                        <path d="M21.3194729,140.024021 C-0.240619998,90.7361812 -4.70648306,52.7797745 7.9218837,26.154801 C19.5156313,1.71116314 46.5870024,-5.59915477 89.1359969,4.22384729 C133.918803,21.8971759 156.506886,44.8431442 156.900246,73.0617521 C157.357468,105.861715 134.769385,134.830854 89.1359969,159.969169" id="Path-7"></path>
                        <path d="M6.16736184,174.04977 C6.16736184,174.04977 11.0103841,162.797585 20.6964286,140.293216" id="Line" stroke-linecap="square"></path>
                        <path d="M79.2202381,192.234052 L89.3075397,160.46955" id="Line-4" stroke-linecap="square"></path>
                    </g>
                </g>
                <g id="END-OF-BULB" transform="translate(168.000000, 295.000000)">
                    <path d="M2.62310263,28.3120108 C17.3227968,29.2244205 31.245278,28.4640056 44.3905462,26.0307662 C56.9237154,23.7108286 69.1115132,19.990296 80.9539396,14.8691685" id="Path-2" stroke="#4A4A4A" stroke-width="10"></path>
                    <path d="M0.495095374,14.8168352 C15.8002006,14.3794578 30.0253873,12.9441493 43.1706555,10.5109098 C55.7038246,8.19097225 67.8384673,4.95634982 79.5745835,0.807042569" id="Path-2" stroke="#000000" stroke-width="5"></path>
                    <path d="M4.65308697,42.9712239 C19.6059269,43.5728881 33.654981,42.6571004 46.8002492,40.223861 C59.3334184,37.9039234 71.8521481,34.2892367 84.3564385,29.3798008" id="Path-2" stroke="#4A4A4A" stroke-width="10"></path>
                    <path d="M5.49349678,57.8253151 C22.3653509,58.2525446 37.373912,57.2495396 50.5191802,54.8163001 C63.0523494,52.4963625 75.545956,48.7053181 88,43.4431668" id="Path-2" stroke="#4A4A4A" stroke-width="10"></path>
                </g>
            </g>
        </g>
    </g>
</svg>