<?xml version="1.0" encoding="UTF-8"?>
<svg width="228px" height="228px" viewBox="0 0 228 228" version="1.1" xmlns="http://www.w3.org/2000/svg" xmlns:xlink="http://www.w3.org/1999/xlink">
    <!-- Generator: Sketch 48.2 (47327) - http://www.bohemiancoding.com/sketch -->
    <title>Icon - Resources</title>
    <desc>Created with Sketch.</desc>
    <defs></defs>
    <g id="landing-page-design-vertical" stroke="none" stroke-width="1" fill="none" fill-rule="evenodd" transform="translate(-273.000000, -800.000000)" opacity="0.699999988">
        <g id="Group-6" transform="translate(273.000000, 800.000000)" fill="#979797" fill-rule="nonzero">
            <g id="Icon---Resources">
                <g id="Group" transform="translate(0.000000, 17.126761)">
                    <path d="M224.890443,4.24070452 C223.067765,2.11889497 220.644204,0.953065551 218.062911,0.950150978 C212.900325,0.950150978 208.406221,6.18472508 208.406221,12.1887466 L208.406221,57.0382044 C210.927426,57.8455413 213.255847,59.399009 215.121088,61.5674517 C217.985297,64.9017238 219.555104,69.3260465 219.560111,74.0359973 C219.560111,78.7459482 217.982793,83.1702709 215.126096,86.4987139 C215.126096,86.4987139 215.121088,86.5016284 215.121088,86.504543 L184.75647,121.849576 C183.682392,123.099929 181.944839,123.105758 180.873264,121.849576 C179.799186,120.602139 179.799186,118.579425 180.873264,117.329073 L211.237882,81.9811248 L211.245393,81.9782103 C213.068072,79.8564007 214.069543,77.0380081 214.069543,74.0389119 C214.069543,71.0369012 213.063064,68.2097648 211.237882,66.0879553 C209.813289,64.4295629 208.038181,63.3978039 206.080304,63.0014219 L205.389288,62.9198138 C202.454977,62.5758941 199.613301,63.7300653 197.587825,66.0908698 L133.325898,140.92546 C129.728111,145.116617 127.690116,150.698025 127.594977,156.652499 L127.572443,204.946983 C127.572443,208.04226 129.728111,210.554622 132.387018,210.554622 L166.870188,210.554622 C169.529095,210.554622 171.682259,208.045175 171.682259,204.946983 L171.682259,189.272406 L224.885436,127.343548 C226.713122,125.215909 227.717097,122.394602 227.717097,119.389676 L227.717097,12.1887466 C227.717097,9.18673583 226.715625,6.36542864 224.890443,4.24070452 Z" id="Shape"></path>
                    <path d="M94.6741023,140.92546 L30.4146789,66.0908698 C28.386699,63.7300653 25.5425197,62.5758941 22.6157191,62.9198138 L21.9247037,63.0014219 C19.9668268,63.3978039 18.186711,64.4295629 16.7621177,66.0879553 C14.9369358,68.2097648 13.9329605,71.0339866 13.9329605,74.0389119 C13.9304569,77.0380081 14.9369358,79.8564007 16.759614,81.9782103 L16.759614,81.9811248 L47.1267358,117.329073 C48.1983104,118.579425 48.200814,120.602139 47.1267358,121.849576 C46.0526575,123.105758 44.3151043,123.099929 43.2435298,121.849576 L12.8814154,86.504543 C12.876408,86.5016284 12.876408,86.4987139 12.876408,86.4987139 C10.0121993,83.1702709 8.43988896,78.7459482 8.44239264,74.0359973 C8.44239264,69.3260465 10.0172067,64.8988093 12.876408,61.5674517 C14.7441525,59.399009 17.0700702,57.8484558 19.5912749,57.0382044 L19.5912749,12.185832 C19.5937786,6.1818105 15.0971712,0.947236404 9.93959264,0.947236404 C7.35829967,0.950150978 4.93223478,2.1159804 3.10955652,4.23778994 C1.28437458,6.36542864 0.28290301,9.18382126 0.28290301,12.185832 L0.28290301,119.389676 C0.285406689,122.391687 1.28687826,125.212994 3.11706756,127.343548 L56.3202448,189.272406 L56.3202448,204.946983 C56.3202448,208.04226 58.4759124,210.554622 61.129812,210.554622 L95.620493,210.554622 C98.2743926,210.554622 100.43006,208.045175 100.43006,204.946983 L100.412534,156.652499 C100.309884,150.695111 98.2743926,145.113703 94.6741023,140.92546 Z" id="Shape"></path>
                </g>
                <path d="M119.923316,52.0880004 L126.683495,52.0880004 C127.022005,52.7665965 127.360516,53.4394417 127.681474,54.0346509 C130.941204,60.0212483 138.380912,59.9436124 138.390942,59.9436124 C138.408494,59.9436124 145.840679,60.0212483 149.102917,54.0346509 C149.426383,53.4394417 149.759878,52.7694719 150.095881,52.0880004 L156.948837,52.0880004 L156.948837,30.4016807 L156.861075,30.4016807 C157.302393,23.2217894 156.041128,12.6201637 153.403254,8.21791561 C148.468523,-0.0345025111 138.405987,2.37304516e-06 138.388434,2.37304516e-06 C138.378404,2.37304516e-06 128.308345,-0.0345025111 123.373615,8.21791561 C120.735741,12.6201637 119.474476,23.2217894 119.920808,30.4016807 L119.920808,52.0880004 L119.923316,52.0880004 Z" id="Shape"></path>
                <path d="M179.056801,84.2654491 C178.710792,81.5178852 178.085982,78.0220484 176.945892,74.3449894 C175.255671,68.9083202 171.847847,64.0416244 167.27504,62.2147867 C165.009795,61.3057522 162.839143,60.5633253 160.822827,59.943662 L156.287359,59.943662 L152.526057,59.943662 C147.691876,67.6982229 138.899739,67.9291352 137.849263,67.9291352 C136.818702,67.9291352 128.039012,67.6982229 123.197362,59.943662 L119.523185,59.943662 L114.898103,59.943662 C112.879298,60.5633253 110.713624,61.3086751 108.44589,62.2147867 C103.875572,64.0416244 100.46277,68.9083202 98.7775273,74.3449894 C97.6374372,78.0191255 97.0126279,81.5149622 96.6691073,84.2654491 C96.6018968,84.7974243 96.5471326,85.2826324 96.5023256,85.7561488 C96.5869611,88.0711176 98.2025037,89.915493 100.196417,89.915493 L137.85922,89.915493 L175.527003,89.915493 C177.520916,89.915493 179.128991,88.0681946 179.218605,85.7561488 C179.176287,85.2826324 179.121523,84.7974243 179.056801,84.2654491 Z" id="Shape"></path>
                <path d="M84.1975375,54.0329173 C87.4610036,60.0181106 94.8975083,59.943618 94.9100024,59.943618 C94.9249954,59.943618 102.3615,60.0181106 105.622467,54.0329173 C108.820964,48.1680582 112.936529,37.5729195 113.38132,30.3987098 C113.82861,23.2273652 112.564204,12.6236312 109.932941,8.21997289 C104.992763,-0.0286491859 94.9274942,1.81126907e-06 94.9100024,1.81126907e-06 C94.9000071,1.81126907e-06 84.8297404,-0.0315142856 79.8920612,8.21997289 C77.2582991,12.6264963 75.9963923,23.2273652 76.4411832,30.3987098 C76.8859741,37.5729195 81.0015397,48.1651931 84.1975375,54.0329173 Z" id="Shape"></path>
                <path d="M90.3009431,83.2997414 C90.7878293,79.3766859 91.5811819,75.5945784 92.6612289,72.0708759 C93.1308146,70.5351288 93.7289184,69.1021565 94.3813953,67.7220396 C94.3245508,67.7220396 94.2553487,67.724976 94.2232191,67.724976 C93.1555296,67.724976 83.6896712,67.4695076 79.0407731,58.6367598 C78.912255,58.3871642 78.7639647,58.070031 78.6280321,57.8028169 C75.088839,58.5457309 70.2916508,59.8172002 64.9260167,61.9872137 C60.3710357,63.8224755 56.9727184,68.7292313 55.292096,74.2144616 C54.1576759,77.926095 53.534857,81.4468611 53.1913181,84.2188405 C53.1245875,84.7503323 53.0726859,85.2465871 53.0232558,85.7193505 C53.1122299,88.0479306 54.7211787,89.915493 56.705796,89.915493 L90.8545599,89.915493 C90.4096892,88.7174341 90.1328808,87.4048549 90.0834508,86.0188652 L90.0612072,85.5167376 L90.1106373,85.0175464 C90.1650104,84.4654997 90.226798,83.9017072 90.3009431,83.2997414 Z" id="Shape"></path>
            </g>
        </g>
    </g>
</svg>